<svg id="visual" viewBox="0 0 1920 1080" width="1920" height="1080" xmlns="http://www.w3.org/2000/svg" xmlns:xlink="http://www.w3.org/1999/xlink" version="1.1"><path d="M1785 1080L1775.3 1044C1765.7 1008 1746.3 936 1755.8 864C1765.3 792 1803.7 720 1806.8 648C1810 576 1778 504 1768.5 432C1759 360 1772 288 1768.8 216C1765.7 144 1746.3 72 1736.7 36L1727 0L1920 0L1920 36C1920 72 1920 144 1920 216C1920 288 1920 360 1920 432C1920 504 1920 576 1920 648C1920 720 1920 792 1920 864C1920 936 1920 1008 1920 1044L1920 1080Z" fill="#d165b2"></path><path d="M1516 1080L1525.5 1044C1535 1008 1554 936 1576.3 864C1598.7 792 1624.3 720 1627.7 648C1631 576 1612 504 1599.2 432C1586.3 360 1579.7 288 1557.2 216C1534.7 144 1496.3 72 1477.2 36L1458 0L1728 0L1737.7 36C1747.3 72 1766.7 144 1769.8 216C1773 288 1760 360 1769.5 432C1779 504 1811 576 1807.8 648C1804.7 720 1766.3 792 1756.8 864C1747.3 936 1766.7 1008 1776.3 1044L1786 1080Z" fill="#e179c4"></path><path d="M1401 1080L1420.2 1044C1439.3 1008 1477.7 936 1503.2 864C1528.7 792 1541.3 720 1538.2 648C1535 576 1516 504 1509.7 432C1503.3 360 1509.7 288 1490.3 216C1471 144 1426 72 1403.5 36L1381 0L1459 0L1478.2 36C1497.3 72 1535.7 144 1558.2 216C1580.7 288 1587.3 360 1600.2 432C1613 504 1632 576 1628.7 648C1625.3 720 1599.7 792 1577.3 864C1555 936 1536 1008 1526.5 1044L1517 1080Z" fill="#ed8fd3"></path><path d="M1132 1080L1112.8 1044C1093.7 1008 1055.3 936 1052.2 864C1049 792 1081 720 1100.2 648C1119.3 576 1125.7 504 1100 432C1074.3 360 1016.7 288 968.7 216C920.7 144 882.3 72 863.2 36L844 0L1382 0L1404.5 36C1427 72 1472 144 1491.3 216C1510.7 288 1504.3 360 1510.7 432C1517 504 1536 576 1539.2 648C1542.3 720 1529.7 792 1504.2 864C1478.7 936 1440.3 1008 1421.2 1044L1402 1080Z" fill="#f2a7dd"></path><path d="M671 1080L667.8 1044C664.7 1008 658.3 936 655.2 864C652 792 652 720 645.5 648C639 576 626 504 635.5 432C645 360 677 288 673.8 216C670.7 144 632.3 72 613.2 36L594 0L845 0L864.2 36C883.3 72 921.7 144 969.7 216C1017.7 288 1075.3 360 1101 432C1126.7 504 1120.3 576 1101.2 648C1082 720 1050 792 1053.2 864C1056.3 936 1094.7 1008 1113.8 1044L1133 1080Z" fill="#f3acdf"></path><path d="M556 1080L549.5 1044C543 1008 530 936 517.2 864C504.3 792 491.7 720 482.2 648C472.7 576 466.3 504 476 432C485.7 360 511.3 288 508.2 216C505 144 473 72 457 36L441 0L595 0L614.2 36C633.3 72 671.7 144 674.8 216C678 288 646 360 636.5 432C627 504 640 576 646.5 648C653 720 653 792 656.2 864C659.3 936 665.7 1008 668.8 1044L672 1080Z" fill="#f2a7dd"></path><path d="M287 1080L280.7 1044C274.3 1008 261.7 936 242.5 864C223.3 792 197.7 720 216.8 648C236 576 300 504 325.5 432C351 360 338 288 331.5 216C325 144 325 72 325 36L325 0L442 0L458 36C474 72 506 144 509.2 216C512.3 288 486.7 360 477 432C467.3 504 473.7 576 483.2 648C492.7 720 505.3 792 518.2 864C531 936 544 1008 550.5 1044L557 1080Z" fill="#ed8fd3"></path><path d="M153 1080L149.7 1044C146.3 1008 139.7 936 130 864C120.3 792 107.7 720 120.5 648C133.3 576 171.7 504 190.8 432C210 360 210 288 203.7 216C197.3 144 184.7 72 178.3 36L172 0L326 0L326 36C326 72 326 144 332.5 216C339 288 352 360 326.5 432C301 504 237 576 217.8 648C198.7 720 224.3 792 243.5 864C262.7 936 275.3 1008 281.7 1044L288 1080Z" fill="#e179c4"></path><path d="M0 1080L0 1044C0 1008 0 936 0 864C0 792 0 720 0 648C0 576 0 504 0 432C0 360 0 288 0 216C0 144 0 72 0 36L0 0L173 0L179.3 36C185.7 72 198.3 144 204.7 216C211 288 211 360 191.8 432C172.7 504 134.3 576 121.5 648C108.7 720 121.3 792 131 864C140.7 936 147.3 1008 150.7 1044L154 1080Z" fill="#d165b2"></path></svg>